<?xml version="1.0" encoding="UTF-8" standalone="no"?><svg xmlns="http://www.w3.org/2000/svg" xmlns:xlink="http://www.w3.org/1999/xlink" contentScriptType="application/ecmascript" contentStyleType="text/css" height="381px" preserveAspectRatio="none" style="width:259px;height:381px;" version="1.1" viewBox="0 0 259 381" width="259px" zoomAndPan="magnify"><defs><filter height="300%" id="f1w1cid7wfr6eu" width="300%" x="-1" y="-1"><feGaussianBlur result="blurOut" stdDeviation="2.0"/><feColorMatrix in="blurOut" result="blurOut2" type="matrix" values="0 0 0 0 0 0 0 0 0 0 0 0 0 0 0 0 0 0 .4 0"/><feOffset dx="4.0" dy="4.0" in="blurOut2" result="blurOut3"/><feBlend in="SourceGraphic" in2="blurOut3" mode="normal"/></filter></defs><g><!--class Canvas--><rect fill="#F8F8F8" filter="url(#f1w1cid7wfr6eu)" height="73.6094" id="Canvas" style="stroke: #383838; stroke-width: 1.5;" width="75" x="58.5" y="8"/><ellipse cx="73.95" cy="24" fill="#C2C2C2" rx="11" ry="11" style="stroke: #383838; stroke-width: 1.0;"/><path d="M76.9231,29.6431 Q76.3421,29.9419 75.7029,30.0913 Q75.0638,30.2407 74.3582,30.2407 Q71.8514,30.2407 70.5315,28.5889 Q69.2117,26.937 69.2117,23.8159 Q69.2117,20.6865 70.5315,19.0347 Q71.8514,17.3828 74.3582,17.3828 Q75.0638,17.3828 75.7112,17.5322 Q76.3587,17.6816 76.9231,17.9805 L76.9231,20.7031 Q76.2923,20.1221 75.6988,19.8523 Q75.1053,19.5825 74.4744,19.5825 Q73.1297,19.5825 72.4449,20.6492 Q71.7601,21.7158 71.7601,23.8159 Q71.7601,25.9077 72.4449,26.9744 Q73.1297,28.041 74.4744,28.041 Q75.1053,28.041 75.6988,27.7712 Q76.2923,27.5015 76.9231,26.9204 Z "/><text fill="#000000" font-family="Hack" font-size="12" lengthAdjust="spacingAndGlyphs" textLength="42" x="88.05" y="28.1543">Canvas</text><line style="stroke: #383838; stroke-width: 1.5;" x1="59.5" x2="132.5" y1="40" y2="40"/><text fill="#000000" font-family="Hack" font-size="11" lengthAdjust="spacingAndGlyphs" textLength="63" x="64.5" y="54.2104">int sizeX</text><text fill="#000000" font-family="Hack" font-size="11" lengthAdjust="spacingAndGlyphs" textLength="63" x="64.5" y="67.0151">int sizeY</text><line style="stroke: #383838; stroke-width: 1.5;" x1="59.5" x2="132.5" y1="73.6094" y2="73.6094"/><!--class Layer--><rect fill="#F8F8F8" filter="url(#f1w1cid7wfr6eu)" height="60.8047" id="Layer" style="stroke: #383838; stroke-width: 1.5;" width="67" x="62.5" y="159"/><ellipse cx="77.5" cy="175" fill="#C2C2C2" rx="11" ry="11" style="stroke: #383838; stroke-width: 1.0;"/><path d="M80.4731,180.6431 Q79.8921,180.9419 79.2529,181.0913 Q78.6138,181.2407 77.9082,181.2407 Q75.4014,181.2407 74.0815,179.5889 Q72.7617,177.937 72.7617,174.8159 Q72.7617,171.6865 74.0815,170.0347 Q75.4014,168.3828 77.9082,168.3828 Q78.6138,168.3828 79.2612,168.5322 Q79.9087,168.6816 80.4731,168.9805 L80.4731,171.7031 Q79.8423,171.1221 79.2488,170.8523 Q78.6553,170.5825 78.0244,170.5825 Q76.6797,170.5825 75.9949,171.6492 Q75.3101,172.7158 75.3101,174.8159 Q75.3101,176.9077 75.9949,177.9744 Q76.6797,179.041 78.0244,179.041 Q78.6553,179.041 79.2488,178.7712 Q79.8423,178.5015 80.4731,177.9204 Z "/><text fill="#000000" font-family="Hack" font-size="12" lengthAdjust="spacingAndGlyphs" textLength="35" x="91.5" y="179.1543">Layer</text><line style="stroke: #383838; stroke-width: 1.5;" x1="63.5" x2="128.5" y1="191" y2="191"/><text fill="#000000" font-family="Hack" font-size="11" lengthAdjust="spacingAndGlyphs" text-decoration="underline" textLength="42" x="68.5" y="205.2104">int ID</text><line style="stroke: #000000; stroke-width: 1.0;" x1="68.5" x2="110.5" y1="207.2104" y2="207.2104"/><line style="stroke: #383838; stroke-width: 1.5;" x1="63.5" x2="128.5" y1="211.8047" y2="211.8047"/><!--class Curve--><rect fill="#F8F8F8" filter="url(#f1w1cid7wfr6eu)" height="73.6094" id="Curve" style="stroke: #383838; stroke-width: 1.5;" width="180" x="6" y="297"/><ellipse cx="74.25" cy="313" fill="#C2C2C2" rx="11" ry="11" style="stroke: #383838; stroke-width: 1.0;"/><path d="M77.2231,318.6431 Q76.6421,318.9419 76.0029,319.0913 Q75.3638,319.2407 74.6582,319.2407 Q72.1514,319.2407 70.8315,317.5889 Q69.5117,315.937 69.5117,312.8159 Q69.5117,309.6865 70.8315,308.0347 Q72.1514,306.3828 74.6582,306.3828 Q75.3638,306.3828 76.0112,306.5322 Q76.6587,306.6816 77.2231,306.9805 L77.2231,309.7031 Q76.5923,309.1221 75.9988,308.8523 Q75.4053,308.5825 74.7744,308.5825 Q73.4297,308.5825 72.7449,309.6492 Q72.0601,310.7158 72.0601,312.8159 Q72.0601,314.9077 72.7449,315.9744 Q73.4297,317.041 74.7744,317.041 Q75.4053,317.041 75.9988,316.7712 Q76.5923,316.5015 77.2231,315.9204 Z "/><text fill="#000000" font-family="Hack" font-size="12" lengthAdjust="spacingAndGlyphs" textLength="35" x="94.75" y="317.1543">Curve</text><line style="stroke: #383838; stroke-width: 1.5;" x1="7" x2="185" y1="329" y2="329"/><text fill="#000000" font-family="Hack" font-size="11" lengthAdjust="spacingAndGlyphs" text-decoration="underline" textLength="42" x="12" y="343.2104">int ID</text><line style="stroke: #000000; stroke-width: 1.0;" x1="12" x2="54" y1="345.2104" y2="345.2104"/><text fill="#000000" font-family="Hack" font-size="11" lengthAdjust="spacingAndGlyphs" textLength="168" x="12" y="356.0151">Point[][]  controlPoints</text><line style="stroke: #383838; stroke-width: 1.5;" x1="7" x2="185" y1="362.6094" y2="362.6094"/><!--link Canvas to Layer--><path d="M96,82.2123 C96,105.9609 96,136.3735 96,158.7503 " fill="none" id="Canvas-Layer" style="stroke: #383838; stroke-width: 1.0;"/><text fill="#000000" font-family="Hack" font-size="13" lengthAdjust="spacingAndGlyphs" textLength="64" x="97" y="125.0669">contains</text><polygon fill="#000000" points="124.5,134.1328,127.5,140.1328,130.5,134.1328,124.5,134.1328" style="stroke: #000000; stroke-width: 1.0;"/><text fill="#000000" font-family="Hack" font-size="13" lengthAdjust="spacingAndGlyphs" textLength="8" x="87.3375" y="101.728">1</text><text fill="#000000" font-family="Hack" font-size="13" lengthAdjust="spacingAndGlyphs" textLength="8" x="87.175" y="147.962">*</text><!--link Layer to Curve--><path d="M96,220.1447 C96,242.5957 96,273.1774 96,296.9929 " fill="none" id="Layer-Curve" style="stroke: #383838; stroke-width: 1.0;"/><text fill="#000000" font-family="Hack" font-size="13" lengthAdjust="spacingAndGlyphs" textLength="40" x="97" y="263.0669">holds</text><polygon fill="#000000" points="112.5,272.1328,115.5,278.1328,118.5,272.1328,112.5,272.1328" style="stroke: #000000; stroke-width: 1.0;"/><text fill="#000000" font-family="Hack" font-size="13" lengthAdjust="spacingAndGlyphs" textLength="8" x="87.2125" y="239.7536">1</text><text fill="#000000" font-family="Hack" font-size="13" lengthAdjust="spacingAndGlyphs" textLength="32" x="61.05" y="285.9021">0..*</text><!--link Layer to Layer--><path d="M142.9038,176.8716 C155.2043,177.6206 164.5,181.8301 164.5,189.5 C164.5,199.7266 147.9743,203.8012 129.8347,201.7239 " fill="none" id="Layer-Layer" style="stroke: #383838; stroke-width: 1.0;"/><polygon fill="#FFFFFF" points="129.8347,177.2761,135.9556,181.0886,141.829,176.9049,135.7081,173.0924,129.8347,177.2761" style="stroke: #383838; stroke-width: 1.0;"/><polygon fill="#000000" points="172.5,188.0664,166.5,191.0664,172.5,194.0664,172.5,188.0664" style="stroke: #000000; stroke-width: 1.0;"/><text fill="#000000" font-family="Hack" font-size="13" lengthAdjust="spacingAndGlyphs" textLength="64" x="183.5" y="194.0669">contains</text><text fill="#000000" font-family="Hack" font-size="13" lengthAdjust="spacingAndGlyphs" textLength="8" x="137.6381" y="170.3088">1</text><text fill="#000000" font-family="Hack" font-size="13" lengthAdjust="spacingAndGlyphs" textLength="32" x="137.4656" y="199.5393">0..*</text><!--
@startuml

skinparam monochrome true
skinparam defaultFontName Hack

class Canvas {
    int sizeX
    int sizeY
}

class Layer {
    {static} int ID
}

class Curve {
    {static} int ID
    Point[][]  controlPoints
}


Canvas "1" - - "*" Layer : contains >
Layer "1" - - "0..*" Curve : holds >
Layer "1" o- - "0..*" Layer : contains >

@enduml

PlantUML version 1.2018.09(Fri Jul 27 18:58:18 CEST 2018)
(GPL source distribution)
Java Runtime: Java(TM) SE Runtime Environment
JVM: Java HotSpot(TM) 64-Bit Server VM
Java Version: 10.0.2+13
Operating System: Mac OS X
OS Version: 10.13.6
Default Encoding: UTF-8
Language: en
Country: US
--></g></svg>