<?xml version="1.0" encoding="UTF-8" standalone="no"?><svg xmlns="http://www.w3.org/2000/svg" xmlns:xlink="http://www.w3.org/1999/xlink" contentScriptType="application/ecmascript" contentStyleType="text/css" height="398px" preserveAspectRatio="none" style="width:621px;height:398px;" version="1.1" viewBox="0 0 621 398" width="621px" zoomAndPan="magnify"><defs><filter height="300%" id="fy7qiwfmx1db1" width="300%" x="-1" y="-1"><feGaussianBlur result="blurOut" stdDeviation="2.0"/><feColorMatrix in="blurOut" result="blurOut2" type="matrix" values="0 0 0 0 0 0 0 0 0 0 0 0 0 0 0 0 0 0 .4 0"/><feOffset dx="4.0" dy="4.0" in="blurOut2" result="blurOut3"/><feBlend in="SourceGraphic" in2="blurOut3" mode="normal"/></filter></defs><g><rect fill="#FFFFFF" filter="url(#fy7qiwfmx1db1)" height="175.8281" style="stroke: #383838; stroke-width: 1.0;" width="10" x="230" y="117.4297"/><rect fill="#F8F8F8" filter="url(#fy7qiwfmx1db1)" height="30.2969" style="stroke: #383838; stroke-width: 1.5;" width="70" x="464" y="183.6953"/><text fill="#000000" font-family="Hack" font-size="14" lengthAdjust="spacingAndGlyphs" text-decoration="underline" textLength="56" x="471" y="203.6904">l:Layer</text><line style="stroke: #000000; stroke-width: 1.0;" x1="471" x2="527" y1="205.6904" y2="205.6904"/><line style="stroke: #383838; stroke-width: 1.0; stroke-dasharray: 5.0,5.0;" x1="27" x2="27" y1="86.2969" y2="311.2578"/><line style="stroke: #383838; stroke-width: 1.0; stroke-dasharray: 5.0,5.0;" x1="235" x2="235" y1="86.2969" y2="311.2578"/><line style="stroke: #383838; stroke-width: 1.0; stroke-dasharray: 5.0,5.0;" x1="501" x2="501" y1="216.3438" y2="311.2578"/><line style="stroke: #383838; stroke-width: 1.0; stroke-dasharray: 5.0,5.0;" x1="581" x2="581" y1="86.2969" y2="311.2578"/><text fill="#000000" font-family="Hack" font-size="14" lengthAdjust="spacingAndGlyphs" text-decoration="underline" textLength="32" x="8" y="82.9951">User</text><line style="stroke: #000000; stroke-width: 1.0;" x1="8" x2="40" y1="84.9951" y2="84.9951"/><ellipse cx="27" cy="13" fill="#F8F8F8" filter="url(#fy7qiwfmx1db1)" rx="8" ry="8" style="stroke: #383838; stroke-width: 2.0;"/><path d="M27,21 L27,48 M14,29 L40,29 M27,48 L14,63 M27,48 L40,63 " fill="none" filter="url(#fy7qiwfmx1db1)" style="stroke: #383838; stroke-width: 2.0;"/><text fill="#000000" font-family="Hack" font-size="14" lengthAdjust="spacingAndGlyphs" text-decoration="underline" textLength="32" x="8" y="323.2529">User</text><line style="stroke: #000000; stroke-width: 1.0;" x1="8" x2="40" y1="325.2529" y2="325.2529"/><ellipse cx="27" cy="336.5547" fill="#F8F8F8" filter="url(#fy7qiwfmx1db1)" rx="8" ry="8" style="stroke: #383838; stroke-width: 2.0;"/><path d="M27,344.5547 L27,371.5547 M14,352.5547 L40,352.5547 M27,371.5547 L14,386.5547 M27,371.5547 L40,386.5547 " fill="none" filter="url(#fy7qiwfmx1db1)" style="stroke: #383838; stroke-width: 2.0;"/><rect fill="#F8F8F8" filter="url(#fy7qiwfmx1db1)" height="30.2969" style="stroke: #383838; stroke-width: 1.5;" width="78" x="194" y="51"/><text fill="#000000" font-family="Hack" font-size="14" lengthAdjust="spacingAndGlyphs" text-decoration="underline" textLength="64" x="201" y="70.9951">c:Canvas</text><line style="stroke: #000000; stroke-width: 1.0;" x1="201" x2="265" y1="72.9951" y2="72.9951"/><rect fill="#F8F8F8" filter="url(#fy7qiwfmx1db1)" height="30.2969" style="stroke: #383838; stroke-width: 1.5;" width="78" x="194" y="310.2578"/><text fill="#000000" font-family="Hack" font-size="14" lengthAdjust="spacingAndGlyphs" text-decoration="underline" textLength="64" x="201" y="330.2529">c:Canvas</text><line style="stroke: #000000; stroke-width: 1.0;" x1="201" x2="265" y1="332.2529" y2="332.2529"/><rect fill="#F8F8F8" filter="url(#fy7qiwfmx1db1)" height="30.2969" style="stroke: #383838; stroke-width: 1.5;" width="70" x="464" y="310.2578"/><text fill="#000000" font-family="Hack" font-size="14" lengthAdjust="spacingAndGlyphs" text-decoration="underline" textLength="56" x="471" y="330.2529">l:Layer</text><line style="stroke: #000000; stroke-width: 1.0;" x1="471" x2="527" y1="332.2529" y2="332.2529"/><rect fill="#F8F8F8" filter="url(#fy7qiwfmx1db1)" height="30.2969" style="stroke: #383838; stroke-width: 1.5;" width="62" x="548" y="51"/><text fill="#000000" font-family="Hack" font-size="14" lengthAdjust="spacingAndGlyphs" text-decoration="underline" textLength="48" x="555" y="70.9951">Layers</text><line style="stroke: #000000; stroke-width: 1.0;" x1="555" x2="603" y1="72.9951" y2="72.9951"/><rect fill="#F8F8F8" filter="url(#fy7qiwfmx1db1)" height="30.2969" style="stroke: #383838; stroke-width: 1.5;" width="62" x="548" y="310.2578"/><text fill="#000000" font-family="Hack" font-size="14" lengthAdjust="spacingAndGlyphs" text-decoration="underline" textLength="48" x="555" y="330.2529">Layers</text><line style="stroke: #000000; stroke-width: 1.0;" x1="555" x2="603" y1="332.2529" y2="332.2529"/><rect fill="#FFFFFF" filter="url(#fy7qiwfmx1db1)" height="175.8281" style="stroke: #383838; stroke-width: 1.0;" width="10" x="230" y="117.4297"/><polygon fill="#383838" points="218,113.4297,228,117.4297,218,121.4297,222,117.4297" style="stroke: #383838; stroke-width: 1.0;"/><line style="stroke: #383838; stroke-width: 1.0;" x1="3" x2="224" y1="117.4297" y2="117.4297"/><text fill="#000000" font-family="Hack" font-size="13" lengthAdjust="spacingAndGlyphs" textLength="208" x="10" y="112.3638">createLayer(parentLayerID)</text><polygon fill="#383838" points="569,142.5625,579,146.5625,569,150.5625,573,146.5625" style="stroke: #383838; stroke-width: 1.0;"/><line style="stroke: #383838; stroke-width: 1.0;" x1="240" x2="575" y1="146.5625" y2="146.5625"/><text fill="#000000" font-family="Hack" font-size="13" lengthAdjust="spacingAndGlyphs" textLength="168" x="247" y="141.4966">exists(parentLayerID)</text><polygon fill="#383838" points="251,171.6953,241,175.6953,251,179.6953,247,175.6953" style="stroke: #383838; stroke-width: 1.0;"/><line style="stroke: #383838; stroke-width: 1.0; stroke-dasharray: 2.0,2.0;" x1="245" x2="580" y1="175.6953" y2="175.6953"/><text fill="#000000" font-family="Hack" font-size="13" lengthAdjust="spacingAndGlyphs" textLength="32" x="257" y="170.6294">true</text><polygon fill="#383838" points="452,200.8281,462,204.8281,452,208.8281,456,204.8281" style="stroke: #383838; stroke-width: 1.0;"/><line style="stroke: #383838; stroke-width: 1.0;" x1="240" x2="458" y1="204.8281" y2="204.8281"/><text fill="#000000" font-family="Hack" font-size="13" lengthAdjust="spacingAndGlyphs" textLength="200" x="247" y="199.7622">l = create(parentLayerID)</text><rect fill="#F8F8F8" filter="url(#fy7qiwfmx1db1)" height="30.2969" style="stroke: #383838; stroke-width: 1.5;" width="70" x="464" y="183.6953"/><text fill="#000000" font-family="Hack" font-size="14" lengthAdjust="spacingAndGlyphs" text-decoration="underline" textLength="56" x="471" y="203.6904">l:Layer</text><line style="stroke: #000000; stroke-width: 1.0;" x1="471" x2="527" y1="205.6904" y2="205.6904"/><polygon fill="#383838" points="569,246.125,579,250.125,569,254.125,573,250.125" style="stroke: #383838; stroke-width: 1.0;"/><line style="stroke: #383838; stroke-width: 1.0;" x1="240" x2="575" y1="250.125" y2="250.125"/><text fill="#000000" font-family="Hack" font-size="13" lengthAdjust="spacingAndGlyphs" textLength="48" x="247" y="245.0591">add(l)</text><polygon fill="#383838" points="251,275.2578,241,279.2578,251,283.2578,247,279.2578" style="stroke: #383838; stroke-width: 1.0;"/><line style="stroke: #383838; stroke-width: 1.0; stroke-dasharray: 2.0,2.0;" x1="245" x2="580" y1="279.2578" y2="279.2578"/><text fill="#000000" font-family="Hack" font-size="13" lengthAdjust="spacingAndGlyphs" textLength="32" x="257" y="274.1919">true</text><polygon fill="#383838" points="38,289.2578,28,293.2578,38,297.2578,34,293.2578" style="stroke: #383838; stroke-width: 1.0;"/><line style="stroke: #383838; stroke-width: 1.0; stroke-dasharray: 2.0,2.0;" x1="32" x2="234" y1="293.2578" y2="293.2578"/><!--
@startuml

skinparam monochrome true
skinparam defaultFontName Hack
skinparam sequenceParticipant underline

actor User

participant "c:Canvas" as C
participant "l:Layer" as L
participant "Layers" as LS

[-> C: createLayer(parentLayerID)
activate C

C -> LS: exists(parentLayerID)
LS - -> C: true

create L
C -> L: l = create(parentLayerID)

C -> LS: add(l)
LS - -> C: true

C - -> User
deactivate C

@enduml

PlantUML version 1.2018.09(Fri Jul 27 18:58:18 CEST 2018)
(GPL source distribution)
Java Runtime: Java(TM) SE Runtime Environment
JVM: Java HotSpot(TM) 64-Bit Server VM
Java Version: 10.0.2+13
Operating System: Mac OS X
OS Version: 10.13.6
Default Encoding: UTF-8
Language: en
Country: US
--></g></svg>